<svg width="145" height="28" viewBox="0 0 145 28" fill="none" xmlns="http://www.w3.org/2000/svg">
<path d="M1.02485 26.5326C0.803777 26.698 0.758705 27.0114 0.924178 27.2325C1.08965 27.4536 1.40301 27.4986 1.62408 27.3332L1.02485 26.5326ZM143.774 27.2563C144.048 27.2174 144.238 26.9643 144.199 26.6909L143.566 22.2357C143.527 21.9623 143.274 21.7721 143.001 21.8109C142.727 21.8498 142.537 22.1029 142.576 22.3763L143.139 26.3365L139.178 26.899C138.905 26.9379 138.715 27.191 138.754 27.4644C138.792 27.7378 139.045 27.9279 139.319 27.8891L143.774 27.2563ZM4.73686 25.0597C4.96177 24.8994 5.01422 24.5872 4.854 24.3623C4.69379 24.1374 4.38158 24.085 4.15667 24.2452L4.73686 25.0597ZM10.5616 19.9157C10.329 20.0645 10.2611 20.3737 10.4099 20.6063C10.5588 20.8389 10.868 20.9068 11.1006 20.758L10.5616 19.9157ZM17.683 16.7871C17.9232 16.6509 18.0075 16.3457 17.8714 16.1055C17.7352 15.8653 17.43 15.7809 17.1898 15.9171L17.683 16.7871ZM24.0237 12.295C23.7761 12.4171 23.6744 12.7169 23.7966 12.9646C23.9188 13.2122 24.2186 13.3139 24.4662 13.1917L24.0237 12.295ZM31.4539 10.0038C31.7085 9.89699 31.8284 9.60398 31.7216 9.34932C31.6149 9.09466 31.3219 8.97477 31.0672 9.08155L31.4539 10.0038ZM38.3005 6.31981C38.0394 6.40977 37.9007 6.69434 37.9906 6.95542C38.0806 7.2165 38.3652 7.35522 38.6262 7.26527L38.3005 6.31981ZM45.9581 5.01555C46.2248 4.94374 46.3827 4.66937 46.3109 4.40273C46.2391 4.13609 45.9647 3.97814 45.6981 4.04995L45.9581 5.01555ZM53.2484 2.30351C52.9772 2.35596 52.8 2.61826 52.8524 2.88937C52.9049 3.16049 53.1672 3.33776 53.4383 3.28531L53.2484 2.30351ZM61.0183 2.10818C61.2926 2.07603 61.4889 1.82763 61.4567 1.55337C61.4246 1.2791 61.1762 1.08283 60.9019 1.11498L61.0183 2.10818ZM68.6232 0.505367C68.3473 0.516602 68.1327 0.749383 68.1439 1.0253C68.1552 1.30121 68.388 1.51577 68.6639 1.50454L68.6232 0.505367ZM76.3349 1.4862C76.6109 1.49612 76.8427 1.28045 76.8526 1.00449C76.8625 0.728523 76.6468 0.496768 76.3709 0.486847L76.3349 1.4862ZM84.0956 1.06036C83.8212 1.02946 83.5737 1.22687 83.5428 1.50127C83.5119 1.77568 83.7093 2.02318 83.9837 2.05408L84.0956 1.06036ZM91.5703 3.19817C91.8416 3.24948 92.1032 3.07112 92.1545 2.79979C92.2058 2.52845 92.0275 2.2669 91.7561 2.21558L91.5703 3.19817ZM99.3089 3.93122C99.042 3.86039 98.7682 4.01935 98.6974 4.28626C98.6266 4.55316 98.7856 4.82695 99.0525 4.89777L99.3089 3.93122ZM106.394 7.12351C106.655 7.21268 106.94 7.0731 107.029 6.81175C107.118 6.5504 106.978 6.26625 106.717 6.17708L106.394 7.12351ZM113.961 8.92112C113.706 8.81491 113.413 8.93545 113.307 9.19035C113.201 9.44525 113.321 9.73799 113.576 9.8442L113.961 8.92112ZM120.565 13.0171C120.813 13.1389 121.112 13.0368 121.234 12.789C121.356 12.5412 121.254 12.2415 121.006 12.1197L120.565 13.0171ZM127.847 15.7372C127.607 15.6011 127.302 15.6856 127.166 15.9259C127.03 16.1662 127.114 16.4713 127.355 16.6074L127.847 15.7372ZM133.934 20.5759C134.167 20.7248 134.476 20.657 134.625 20.4245C134.774 20.1919 134.706 19.8827 134.473 19.7338L133.934 20.5759ZM140.877 24.0701C140.652 23.9096 140.34 23.9617 140.18 24.1864C140.019 24.4111 140.071 24.7234 140.296 24.8839L140.877 24.0701ZM1.32447 26.9329L1.62408 27.3332C2.66006 26.5577 3.69768 25.7999 4.73686 25.0597L4.44676 24.6524L4.15667 24.2452C3.11102 24.99 2.06705 25.7525 1.02485 26.5326L1.32447 26.9329ZM10.8311 20.3368L11.1006 20.758C13.289 19.3576 15.4834 18.034 17.683 16.7871L17.4364 16.3521L17.1898 15.9171C14.9744 17.1731 12.7647 18.5059 10.5616 19.9157L10.8311 20.3368ZM24.245 12.7433L24.4662 13.1917C26.791 12.0447 29.1205 10.9821 31.4539 10.0038L31.2605 9.54266L31.0672 9.08155C28.7146 10.068 26.3664 11.139 24.0237 12.295L24.245 12.7433ZM38.4634 6.79254L38.6262 7.26527C41.0674 6.42417 43.5117 5.67437 45.9581 5.01555L45.8281 4.53275L45.6981 4.04995C43.2292 4.71483 40.763 5.47137 38.3005 6.31981L38.4634 6.79254ZM53.3433 2.79441L53.4383 3.28531C55.9642 2.79668 58.4913 2.40442 61.0183 2.10818L60.9601 1.61158L60.9019 1.11498C58.35 1.41413 55.7984 1.81021 53.2484 2.30351L53.3433 2.79441ZM68.6435 1.00495L68.6639 1.50454C71.2224 1.40035 73.7798 1.39435 76.3349 1.4862L76.3529 0.986524L76.3709 0.486847C73.7902 0.394074 71.2072 0.400141 68.6232 0.505367L68.6435 1.00495ZM84.0396 1.55722L83.9837 2.05408C86.5163 2.33925 89.0456 2.72071 91.5703 3.19817L91.6632 2.70688L91.7561 2.21558C89.2071 1.73353 86.6532 1.34834 84.0956 1.06036L84.0396 1.55722ZM99.1807 4.41449L99.0525 4.89777C101.505 5.54866 103.953 6.29065 106.394 7.12351L106.556 6.6503L106.717 6.17708C104.254 5.33687 101.785 4.58813 99.3089 3.93122L99.1807 4.41449ZM113.769 9.38266L113.576 9.8442C115.913 10.8179 118.243 11.8756 120.565 13.0171L120.785 12.5684L121.006 12.1197C118.666 10.9692 116.317 9.90294 113.961 8.92112L113.769 9.38266ZM127.601 16.1723L127.355 16.6074C129.556 17.854 131.75 19.1769 133.934 20.5759L134.204 20.1548L134.473 19.7338C132.274 18.3252 130.065 16.993 127.847 15.7372L127.601 16.1723ZM140.586 24.477L140.296 24.8839C141.334 25.6255 142.37 26.3845 143.404 27.161L143.704 26.7612L144.004 26.3615C142.964 25.5803 141.922 24.8165 140.877 24.0701L140.586 24.477Z" fill="#127AD3"/>
</svg>
