<svg width="145" height="29" viewBox="0 0 145 29" fill="none" xmlns="http://www.w3.org/2000/svg">
<path d="M1.02485 2.06947C0.803777 1.904 0.758705 1.59064 0.924178 1.36957C1.08965 1.1485 1.40301 1.10342 1.62408 1.2689L1.02485 2.06947ZM143.774 1.34577C144.048 1.3846 144.238 1.63772 144.199 1.91112L143.566 6.3664C143.527 6.6398 143.274 6.82995 143.001 6.79112C142.727 6.75229 142.537 6.49917 142.576 6.22577L143.139 2.26552L139.178 1.70302C138.905 1.66419 138.715 1.41107 138.754 1.13768C138.792 0.864276 139.045 0.674124 139.319 0.712956L143.774 1.34577ZM4.73686 3.5424C4.96177 3.70261 5.01422 4.01482 4.854 4.23973C4.69379 4.46464 4.38158 4.51709 4.15667 4.35688L4.73686 3.5424ZM10.5616 8.68637C10.329 8.53753 10.2611 8.22831 10.4099 7.99571C10.5588 7.76312 10.868 7.69522 11.1006 7.84407L10.5616 8.68637ZM17.683 11.815C17.9232 11.9512 18.0075 12.2563 17.8714 12.4965C17.7352 12.7368 17.43 12.8211 17.1898 12.6849L17.683 11.815ZM24.0237 16.3071C23.7761 16.1849 23.6744 15.8851 23.7966 15.6375C23.9188 15.3898 24.2186 15.2881 24.4662 15.4103L24.0237 16.3071ZM31.4539 18.5983C31.7085 18.7051 31.8284 18.9981 31.7216 19.2527C31.6149 19.5074 31.3219 19.6273 31.0672 19.5205L31.4539 18.5983ZM38.3005 22.2822C38.0394 22.1923 37.9007 21.9077 37.9906 21.6466C38.0806 21.3856 38.3652 21.2468 38.6262 21.3368L38.3005 22.2822ZM45.9581 23.5865C46.2248 23.6583 46.3827 23.9327 46.3109 24.1993C46.2391 24.466 45.9647 24.6239 45.6981 24.5521L45.9581 23.5865ZM53.2484 26.2985C52.9772 26.2461 52.8 25.9838 52.8524 25.7127C52.9049 25.4416 53.1672 25.2643 53.4383 25.3167L53.2484 26.2985ZM61.0183 26.4939C61.2926 26.526 61.4889 26.7744 61.4567 27.0487C61.4246 27.3229 61.1762 27.5192 60.9019 27.4871L61.0183 26.4939ZM68.6232 28.0967C68.3473 28.0854 68.1327 27.8527 68.1439 27.5768C68.1552 27.3008 68.388 27.0863 68.6639 27.0975L68.6232 28.0967ZM76.3349 27.1158C76.6109 27.1059 76.8427 27.3216 76.8526 27.5976C76.8625 27.8735 76.6468 28.1053 76.3709 28.1152L76.3349 27.1158ZM84.0956 27.5417C83.8212 27.5726 83.5737 27.3752 83.5428 27.1008C83.5119 26.8264 83.7093 26.5789 83.9837 26.548L84.0956 27.5417ZM91.5703 25.4039C91.8416 25.3526 92.1032 25.5309 92.1545 25.8023C92.2058 26.0736 92.0275 26.3352 91.7561 26.3865L91.5703 25.4039ZM99.3089 24.6708C99.042 24.7417 98.7682 24.5827 98.6974 24.3158C98.6266 24.0489 98.7856 23.7751 99.0525 23.7043L99.3089 24.6708ZM106.394 21.4785C106.655 21.3894 106.94 21.5289 107.029 21.7903C107.118 22.0516 106.978 22.3358 106.717 22.425L106.394 21.4785ZM113.961 19.6809C113.706 19.7871 113.413 19.6666 113.307 19.4117C113.201 19.1568 113.321 18.8641 113.576 18.7579L113.961 19.6809ZM120.565 15.585C120.813 15.4631 121.112 15.5653 121.234 15.8131C121.356 16.0609 121.254 16.3605 121.006 16.4824L120.565 15.585ZM127.847 12.8649C127.607 13.0009 127.302 12.9164 127.166 12.6761C127.03 12.4358 127.114 12.1308 127.355 11.9947L127.847 12.8649ZM133.934 8.02619C134.167 7.87726 134.476 7.94505 134.625 8.17759C134.774 8.41013 134.706 8.71937 134.473 8.8683L133.934 8.02619ZM140.877 4.53191C140.652 4.69242 140.34 4.64038 140.18 4.41568C140.019 4.19097 140.071 3.8787 140.296 3.71819L140.877 4.53191ZM1.32447 1.66919L1.62408 1.2689C2.66006 2.04433 3.69768 2.80215 4.73686 3.5424L4.44676 3.94964L4.15667 4.35688C3.11102 3.61202 2.06705 2.84956 1.02485 2.06947L1.32447 1.66919ZM10.8311 8.26522L11.1006 7.84407C13.289 9.24446 15.4834 10.568 17.683 11.815L17.4364 12.25L17.1898 12.6849C14.9744 11.429 12.7647 10.0962 10.5616 8.68637L10.8311 8.26522ZM24.245 15.8587L24.4662 15.4103C26.791 16.5574 29.1205 17.6199 31.4539 18.5983L31.2605 19.0594L31.0672 19.5205C28.7146 18.5341 26.3664 17.463 24.0237 16.3071L24.245 15.8587ZM38.4634 21.8095L38.6262 21.3368C41.0674 22.1779 43.5117 22.9277 45.9581 23.5865L45.8281 24.0693L45.6981 24.5521C43.2292 23.8872 40.763 23.1307 38.3005 22.2822L38.4634 21.8095ZM53.3433 25.8076L53.4383 25.3167C55.9642 25.8054 58.4913 26.1976 61.0183 26.4939L60.9601 26.9905L60.9019 27.4871C58.35 27.1879 55.7984 26.7918 53.2484 26.2985L53.3433 25.8076ZM68.6435 27.5971L68.6639 27.0975C71.2224 27.2017 73.7798 27.2077 76.3349 27.1158L76.3529 27.6155L76.3709 28.1152C73.7902 28.208 71.2072 28.2019 68.6232 28.0967L68.6435 27.5971ZM84.0396 27.0448L83.9837 26.548C86.5163 26.2628 89.0456 25.8813 91.5703 25.4039L91.6632 25.8952L91.7561 26.3865C89.2071 26.8685 86.6532 27.2537 84.0956 27.5417L84.0396 27.0448ZM99.1807 24.1876L99.0525 23.7043C101.505 23.0534 103.953 22.3114 106.394 21.4785L106.556 21.9518L106.717 22.425C104.254 23.2652 101.785 24.0139 99.3089 24.6708L99.1807 24.1876ZM113.769 19.2194L113.576 18.7579C115.913 17.7842 118.243 16.7265 120.565 15.585L120.785 16.0337L121.006 16.4824C118.666 17.6328 116.317 18.6991 113.961 19.6809L113.769 19.2194ZM127.601 12.4298L127.355 11.9947C129.556 10.748 131.75 9.42515 133.934 8.02619L134.204 8.44724L134.473 8.8683C132.274 10.2768 130.065 11.6091 127.847 12.8649L127.601 12.4298ZM140.586 4.12505L140.296 3.71819C141.334 2.97657 142.37 2.21751 143.404 1.44104L143.704 1.8408L144.004 2.24056C142.964 3.02179 141.922 3.78558 140.877 4.53191L140.586 4.12505Z" fill="#127AD3"/>
</svg>
