<svg width="70" height="136" viewBox="0 0 70 136" fill="none" xmlns="http://www.w3.org/2000/svg">
<path d="M0.729416 0.745561C0.456073 0.706331 0.202686 0.896115 0.163453 1.16946C0.124224 1.4428 0.314008 1.69619 0.587351 1.73542L0.729416 0.745561ZM40.1128 135.05C40.103 135.326 40.3187 135.557 40.5947 135.567L45.0919 135.727C45.3678 135.737 45.5995 135.521 45.6093 135.245C45.6191 134.969 45.4033 134.737 45.1274 134.728L41.1299 134.586L41.272 130.588C41.2818 130.312 41.066 130.08 40.7901 130.071C40.5141 130.061 40.2824 130.277 40.2726 130.553L40.1128 135.05ZM4.61656 2.39221C4.88819 2.44189 5.14867 2.26196 5.19836 1.99033C5.24804 1.71869 5.06811 1.45821 4.79647 1.40853L4.61656 2.39221ZM12.7673 3.19806C12.5006 3.12656 12.2264 3.28483 12.1549 3.55155C12.0834 3.81828 12.2417 4.09246 12.5084 4.16396L12.7673 3.19806ZM20.2324 6.5981C20.4919 6.69274 20.7789 6.55916 20.8735 6.29974C20.9682 6.04033 20.8346 5.75331 20.5752 5.65867L20.2324 6.5981ZM28.1372 8.82613C27.8879 8.70736 27.5896 8.81317 27.4708 9.06246C27.352 9.31176 27.4578 9.61014 27.7071 9.72891L28.1372 8.82613ZM34.8165 13.5629C35.0526 13.7062 35.3601 13.631 35.5034 13.395C35.6467 13.1589 35.5715 12.8514 35.3354 12.7081L34.8165 13.5629ZM42.1126 17.3317C41.8933 17.164 41.5795 17.2059 41.4118 17.4252C41.244 17.6446 41.2859 17.9584 41.5053 18.1261L42.1126 17.3317ZM47.641 23.3809C47.8403 23.5721 48.1568 23.5654 48.3479 23.3661C48.539 23.1668 48.5324 22.8503 48.3331 22.6592L47.641 23.3809ZM53.9172 28.6679C53.7412 28.455 53.4261 28.4251 53.2132 28.601C53.0004 28.777 52.9705 29.0921 53.1464 29.305L53.9172 28.6679ZM57.9174 35.8212C58.0671 36.0532 58.3766 36.12 58.6086 35.9703C58.8407 35.8206 58.9074 35.5111 58.7577 35.279L57.9174 35.8212ZM62.7879 42.4244C62.6668 42.1762 62.3674 42.0732 62.1192 42.1943C61.8711 42.3155 61.7681 42.6148 61.8892 42.863L62.7879 42.4244ZM64.9962 50.3219C65.0871 50.5826 65.3722 50.7203 65.6329 50.6294C65.8937 50.5385 66.0314 50.2534 65.9405 49.9927L64.9962 50.3219ZM68.1795 57.8806C68.1198 57.611 67.8528 57.4408 67.5832 57.5005C67.3136 57.5603 67.1435 57.8272 67.2032 58.0968L68.1795 57.8806ZM68.4913 66.0755C68.5195 66.3502 68.7651 66.55 69.0398 66.5218C69.3145 66.4935 69.5143 66.2479 69.486 65.9732L68.4913 66.0755ZM69.8614 74.1653C69.8642 73.8892 69.6428 73.663 69.3666 73.6601C69.0905 73.6572 68.8643 73.8787 68.8614 74.1548L69.8614 74.1653ZM68.3309 82.219C68.2977 82.4931 68.4931 82.7422 68.7672 82.7754C69.0413 82.8085 69.2905 82.6132 69.3236 82.3391L68.3309 82.219ZM67.9031 90.4184C67.9652 90.1494 67.7975 89.8809 67.5285 89.8187C67.2594 89.7565 66.9909 89.9242 66.9287 90.1932L67.9031 90.4184ZM64.7044 97.9613C64.6149 98.2226 64.7541 98.5069 65.0154 98.5964C65.2766 98.6858 65.5609 98.5466 65.6504 98.2854L64.7044 97.9613ZM62.6088 105.902C62.7238 105.651 62.6134 105.354 62.3623 105.239C62.1112 105.124 61.8145 105.235 61.6995 105.486L62.6088 105.902ZM57.9883 112.668C57.8501 112.907 57.932 113.212 58.171 113.351C58.4101 113.489 58.716 113.407 58.8541 113.168L57.9883 112.668ZM54.4371 120.065C54.5963 119.839 54.5425 119.527 54.3168 119.368C54.0912 119.208 53.7793 119.262 53.62 119.488L54.4371 120.065ZM48.6619 125.903C48.4839 126.114 48.5107 126.43 48.7218 126.608C48.9329 126.786 49.2483 126.759 49.4264 126.548L48.6619 125.903ZM43.908 132.572C44.1025 132.376 44.1014 132.06 43.9054 131.865C43.7095 131.67 43.3929 131.672 43.1983 131.868L43.908 132.572ZM0.658384 1.24049L0.587351 1.73542C1.94966 1.93094 3.29277 2.15009 4.61656 2.39221L4.70651 1.90037L4.79647 1.40853C3.45998 1.16408 2.10425 0.942878 0.729416 0.745561L0.658384 1.24049ZM12.6379 3.68101L12.5084 4.16396C15.1731 4.87824 17.7481 5.69176 20.2324 6.5981L20.4038 6.12838L20.5752 5.65867C18.0628 4.7421 15.4598 3.91979 12.7673 3.19806L12.6379 3.68101ZM27.9222 9.27752L27.7071 9.72891C30.1843 10.9091 32.5546 12.1898 34.8165 13.5629L35.076 13.1355L35.3354 12.7081C33.0443 11.3173 30.6444 10.0206 28.1372 8.82613L27.9222 9.27752ZM41.809 17.7289L41.5053 18.1261C43.6756 19.7852 45.7214 21.5401 47.641 23.3809L47.987 23.0201L48.3331 22.6592C46.3865 20.7924 44.3124 19.0133 42.1126 17.3317L41.809 17.7289ZM53.5318 28.9864L53.1464 29.305C54.8763 31.3978 56.4673 33.5735 57.9174 35.8212L58.3376 35.5501L58.7577 35.279C57.2863 32.9984 55.6721 30.7909 53.9172 28.6679L53.5318 28.9864ZM62.3385 42.6437L61.8892 42.863C63.0737 45.2898 64.11 47.7799 64.9962 50.3219L65.4684 50.1573L65.9405 49.9927C65.0414 47.4135 63.9898 44.8868 62.7879 42.4244L62.3385 42.6437ZM67.6913 57.9887L67.2032 58.0968C67.7842 60.7201 68.2143 63.3835 68.4913 66.0755L68.9886 66.0244L69.486 65.9732C69.2051 63.2431 68.769 60.5417 68.1795 57.8806L67.6913 57.9887ZM69.3614 74.1601L68.8614 74.1548C68.8334 76.8297 68.6572 79.5213 68.3309 82.219L68.8272 82.279L69.3236 82.3391C69.6543 79.6053 69.8329 76.8771 69.8614 74.1653L69.3614 74.1601ZM67.4159 90.3058L66.9287 90.1932C66.3286 92.7898 65.5878 95.3823 64.7044 97.9613L65.1774 98.1233L65.6504 98.2854C66.5448 95.6741 67.2952 93.0486 67.9031 90.4184L67.4159 90.3058ZM62.1542 105.694L61.6995 105.486C60.5933 107.903 59.3567 110.3 57.9883 112.668L58.4212 112.918L58.8541 113.168C60.2382 110.773 61.4893 108.348 62.6088 105.902L62.1542 105.694ZM54.0285 119.776L53.62 119.488C52.0864 121.661 50.4341 123.802 48.6619 125.903L49.0441 126.226L49.4264 126.548C51.2168 124.425 52.8867 122.261 54.4371 120.065L54.0285 119.776ZM43.5532 132.22L43.1983 131.868C42.25 132.823 41.2744 133.768 40.2717 134.702L40.6125 135.067L40.9532 135.433C41.9655 134.491 42.9503 133.537 43.908 132.572L43.5532 132.22Z" fill="#127AD3"/>
</svg>
