<svg width="79" height="59" viewBox="0 0 79 59" fill="none" xmlns="http://www.w3.org/2000/svg">
<path fill-rule="evenodd" clip-rule="evenodd" d="M79 9.21475C67.1676 14.3341 61.2515 20.3492 61.2515 27.2603C66.2948 27.7722 70.4652 29.5853 73.7627 32.6996C77.0603 35.8138 78.709 39.4186 78.709 43.5141C78.709 47.8655 77.1088 51.5343 73.9082 54.5206C70.7076 57.5069 66.6827 59 61.8334 59C56.4021 59 51.6983 57.0589 47.7218 53.1768C43.7453 49.2946 41.7571 44.5807 41.7571 39.0347C41.7571 22.3969 52.3286 9.38544 73.4718 0L79 9.21475ZM37.2429 9.21475C25.3134 14.3341 19.3488 20.3492 19.3488 27.2603C24.4891 27.7722 28.708 29.5853 32.0056 32.6996C35.3031 35.8138 36.9519 39.4186 36.9519 43.5141C36.9519 47.8655 35.3274 51.5343 32.0783 54.5206C28.8293 57.5069 24.7801 59 19.9307 59C14.4995 59 9.81991 57.0589 5.89194 53.1768C1.96396 49.2946 0 44.5807 0 39.0347C0 22.3969 10.5229 9.38544 31.5691 0L37.2429 9.21475Z" fill="#127AD3"/>
</svg>
